<svg width="30" height="37" viewBox="0 0 30 37" xmlns="http://www.w3.org/2000/svg"><title>Male User Silhouette</title><path d="M19.504 26.256c-.133-1.504-.083-2.553-.083-3.928.67-.356 1.868-2.636 2.07-4.562.526-.044 1.355-.566 1.598-2.63.131-1.107-.389-1.73-.706-1.926.855-2.622 2.633-10.731-3.289-11.569C18.486.551 16.926 0 14.899 0 6.786.152 5.807 6.239 7.585 13.21c-.315.196-.836.819-.706 1.926.244 2.064 1.072 2.586 1.598 2.63.202 1.925 1.448 4.206 2.119 4.562 0 1.375.05 2.424-.084 3.928C9.357 29.42 3.424 29.668 0 32.719c3.579 3.668 9.379 6.294 15.499 6.294 6.121 0 13.315-4.922 14.512-6.264-3.402-3.079-9.348-3.319-10.507-6.493" fill="#B2BBC6" fill-rule="evenodd"/></svg>