<svg xmlns="http://www.w3.org/2000/svg" viewBox="0 0 898.12651 898.73743"><path d="M42.19 855.936L.006 813.75 182.19 631.56l182.186-182.189L182.19 267.18 0 84.988 41.88 43.12 83.76 1.255l181.562 181.558C365.181 282.67 447.445 364.37 448.13 364.37c.686 0 83.232-81.983 183.436-182.185L813.755 0l42.186 42.186 42.185 42.186L715.941 266.56C615.739 366.764 533.755 449.31 533.755 449.996c0 .686 81.845 83.093 181.878 183.128l181.878 181.88-41.88 41.867-41.881 41.867-182.497-182.495L448.755 533.75l-182.19 182.187L84.378 898.122 42.19 855.936z"/></svg>