<svg xmlns="http://www.w3.org/2000/svg" viewBox="0 0 100 100"><path style="text-indent:0;text-align:start;line-height:normal;text-transform:none;block-progression:tb;marker:none;-inkscape-font-specification:Sans" d="M69.656 10c-.67.08-1.308.394-1.781.875l-52 52a3.02 3.02 0 0 0-.813 1.438l-5 22a3.058 3.058 0 0 0 .804 2.79 3.058 3.058 0 0 0 2.79.803l22-5a3.02 3.02 0 0 0 1.469-.812l52-52c1.096-1.11 1.096-3.11 0-4.219l-17-17A3.047 3.047 0 0 0 69.656 10zM70 17.219L82.75 30 77 35.75 64.25 23zm-10 10L72.75 40 36 76.75 23.25 64zM20.094 69.312l10.593 10.594L17 83z" font-weight="400" color="#000" overflow="visible" font-family="Sans"/></svg>