<svg height="30" viewBox="0 0 30 30" width="30" xmlns="http://www.w3.org/2000/svg"><path clip-rule="evenodd" d="M19 30h-7.996s.011-2.372 0-4c-5.473 1.178-7-3-7-3-1-2-2-3-2-3-2-1.188 0-1 0-1 2 0 3 2 3 2 1.755 2.981 4.878 2.501 6 2 0-1 .438-2.512 1-3C7.636 19.508 4 17 4 12s1.004-6 2.004-7c-.202-.493-1.039-2.315.031-5C6.035 0 8 0 10 3c.991-.991 4-1 5.001-1C16 2 19.009 2.009 20 3c2-3 3.969-3 3.969-3 1.07 2.685.233 4.507.031 5 1 1 2 2 2 7s-3.632 7.508-8 8c.562.488 1 2.21 1 3v7z" fill="#141313" fill-rule="evenodd"/></svg>