<svg xmlns="http://www.w3.org/2000/svg" viewBox="0 0 22 22"><title>action_013-sync-problem-alert-arrow</title><path d="M2.451 17.923c3.824 4.72 10.75 5.449 15.472 1.626a10.983 10.983 0 0 0 4.072-8.892l-.504-.11-1.525-.334a9 9 0 0 1-15.96 6.451l2.331-1.888-6.255-1.369.038 6.403 2.331-1.887zm-2.446-6.58a10.983 10.983 0 0 1 4.072-8.892C8.8-1.372 15.725-.644 19.55 4.077L21.88 2.19l.038 6.403-6.255-1.369 2.331-1.888a9 9 0 0 0-15.96 6.451l-1.525-.333-.504-.11zM10 6h2v7h-2V6zm0 8h2v2h-2v-2z" fill="#000" fill-rule="evenodd"/></svg>